<svg xmlns="http://www.w3.org/2000/svg" viewBox="0 0 1200 630" role="img" aria-label="硅基文明消费股交易系统">
  <defs>
    <linearGradient id="bg" x1="0" y1="630" x2="1200" y2="0" gradientUnits="userSpaceOnUse">
      <stop offset="0" stop-color="#101114"/>
      <stop offset=".58" stop-color="#17231d"/>
      <stop offset="1" stop-color="#263c32"/>
    </linearGradient>
    <filter id="soft-glow" x="-20%" y="-30%" width="140%" height="160%">
      <feGaussianBlur stdDeviation="9" result="blur"/>
      <feMerge><feMergeNode in="blur"/><feMergeNode in="SourceGraphic"/></feMerge>
    </filter>
  </defs>
  <rect width="1200" height="630" fill="url(#bg)"/>
  <g opacity=".14" stroke="#f2f4f1" stroke-width="1">
    <path d="M0 122h1200M0 242h1200M0 362h1200M0 482h1200"/>
    <path d="M164 0v630M344 0v630M524 0v630M704 0v630M884 0v630M1064 0v630"/>
  </g>
  <rect x="74" y="70" width="1052" height="490" rx="34" fill="#181a1f" fill-opacity=".68" stroke="#f2f4f1" stroke-opacity=".14" stroke-width="2"/>
  <text x="112" y="150" fill="#f2b84b" font-family="-apple-system,BlinkMacSystemFont,'Segoe UI','PingFang SC','Microsoft YaHei',sans-serif" font-size="28" font-weight="700">DeepSeek · Tushare · A股股票池</text>
  <text x="112" y="252" fill="#f2f4f1" font-family="-apple-system,BlinkMacSystemFont,'Segoe UI','PingFang SC','Microsoft YaHei',sans-serif" font-size="84" font-weight="850">硅基文明消费股</text>
  <text x="112" y="352" fill="#f2f4f1" font-family="-apple-system,BlinkMacSystemFont,'Segoe UI','PingFang SC','Microsoft YaHei',sans-serif" font-size="84" font-weight="850">交易系统</text>
  <g font-family="-apple-system,BlinkMacSystemFont,'Segoe UI','PingFang SC','Microsoft YaHei',sans-serif">
    <g transform="translate(112 470)">
      <rect width="956" height="54" rx="14" fill="#121418" stroke="#30343b"/>
      <text x="24" y="36" fill="#63d471" font-size="28" font-weight="800">+365.7%</text>
      <text x="172" y="35" fill="#9ca39a" font-size="20">回测收益</text>
      <text x="320" y="35" fill="#f2f4f1" font-size="22" font-weight="700">年化 +366.2%</text>
      <text x="508" y="35" fill="#f2f4f1" font-size="22" font-weight="700">回撤 -20.1%</text>
      <text x="694" y="35" fill="#f2f4f1" font-size="22" font-weight="700">夏普 2.95</text>
      <text x="820" y="35" fill="#9ca39a" font-size="18">¥4,652,732</text>
    </g>
  </g>
  <polyline points="646.0,359.8 647.6,360.0 649.2,359.3 650.8,359.5 652.4,358.3 654.0,358.5 655.6,358.8 657.2,359.1 658.8,359.2 660.4,358.9 662.0,358.3 663.7,356.9 665.3,356.6 666.9,356.7 668.5,357.4 670.1,356.9 671.7,357.5 673.3,357.6 674.9,356.2 676.5,356.4 678.1,356.2 679.7,356.6 681.3,356.4 682.9,353.8 684.5,354.1 686.1,352.6 687.7,352.9 689.3,353.1 690.9,353.3 692.5,352.8 694.1,353.4 695.8,353.5 697.4,352.7 699.0,350.9 700.6,351.0 702.2,350.1 703.8,350.8 705.4,351.0 707.0,351.0 708.6,351.0 710.2,351.3 711.8,351.4 713.4,350.6 715.0,348.8 716.6,345.3 718.2,346.4 719.8,346.1 721.4,343.4 723.0,341.5 724.6,342.3 726.2,343.2 727.9,341.9 729.5,339.1 731.1,339.1 732.7,338.1 734.3,332.9 735.9,332.6 737.5,327.8 739.1,331.6 740.7,329.2 742.3,336.0 743.9,332.1 745.5,336.2 747.1,337.2 748.7,335.0 750.3,329.7 751.9,331.5 753.5,332.0 755.1,332.1 756.7,331.4 758.3,330.3 760.0,329.4 761.6,328.7 763.2,328.2 764.8,329.6 766.4,328.5 768.0,330.5 769.6,329.2 771.2,331.2 772.8,331.8 774.4,333.4 776.0,332.9 777.6,335.6 779.2,334.8 780.8,333.3 782.4,335.1 784.0,335.0 785.6,333.4 787.2,334.0 788.8,334.3 790.4,329.0 792.0,325.1 793.7,325.3 795.3,323.7 796.9,324.5 798.5,327.3 800.1,325.4 801.7,326.2 803.3,326.5 804.9,324.1 806.5,323.7 808.1,321.5 809.7,322.8 811.3,321.7 812.9,320.4 814.5,324.8 816.1,324.9 817.7,326.5 819.3,326.2 820.9,327.9 822.5,331.9 824.1,332.2 825.8,330.7 827.4,329.5 829.0,329.1 830.6,328.3 832.2,327.7 833.8,328.6 835.4,328.8 837.0,328.9 838.6,328.9 840.2,324.0 841.8,323.3 843.4,323.4 845.0,324.6 846.6,322.7 848.2,325.1 849.8,326.9 851.4,323.4 853.0,323.2 854.6,325.0 856.2,323.4 857.9,322.4 859.5,320.7 861.1,320.2 862.7,320.3 864.3,320.4 865.9,320.9 867.5,322.8 869.1,318.6 870.7,317.7 872.3,316.2 873.9,318.0 875.5,318.5 877.1,317.3 878.7,319.0 880.3,318.0 881.9,314.9 883.5,311.2 885.1,313.7 886.7,314.9 888.3,313.2 890.0,312.6 891.6,313.2 893.2,313.0 894.8,310.9 896.4,309.6 898.0,312.2 899.6,311.3 901.2,316.7 902.8,314.5 904.4,315.2 906.0,316.5 907.6,317.1 909.2,316.1 910.8,316.3 912.4,317.0 914.0,316.1 915.6,316.9 917.2,316.1 918.8,316.4 920.4,314.3 922.0,315.4 923.7,315.1 925.3,317.7 926.9,318.0 928.5,317.8 930.1,315.9 931.7,316.8 933.3,313.2 934.9,313.5 936.5,314.3 938.1,315.8 939.7,314.6 941.3,319.0 942.9,317.2 944.5,317.8 946.1,317.0 947.7,320.0 949.3,318.7 950.9,317.2 952.5,318.0 954.1,317.3 955.8,317.2 957.4,320.0 959.0,317.4 960.6,318.8 962.2,317.9 963.8,318.8 965.4,314.5 967.0,312.9 968.6,311.5 970.2,309.9 971.8,308.1 973.4,309.1 975.0,307.8 976.6,303.4 978.2,302.9 979.8,303.1 981.4,299.6 983.0,303.1 984.6,305.1 986.2,303.9 987.9,304.9 989.5,305.9 991.1,304.3 992.7,302.9 994.3,298.1 995.9,297.9 997.5,294.8 999.1,293.0 1000.7,289.7 1002.3,292.0 1003.9,295.6 1005.5,294.3 1007.1,295.2 1008.7,293.1 1010.3,298.0 1011.9,293.3 1013.5,289.8 1015.1,293.0 1016.7,291.9 1018.3,286.1 1020.0,287.9 1021.6,292.2 1023.2,285.7 1024.8,282.0 1026.4,283.1 1028.0,285.8 1029.6,290.0 1031.2,282.8 1032.8,285.4 1034.4,286.2 1036.0,287.3" fill="none" stroke="#63d471" stroke-width="8" stroke-linecap="round" stroke-linejoin="round" filter="url(#soft-glow)"/>
</svg>
