<svg xmlns="http://www.w3.org/2000/svg" viewBox="0 0 1200 630" role="img" aria-label="硅基文明消费股交易系统">
  <defs>
    <linearGradient id="bg" x1="0" y1="630" x2="1200" y2="0" gradientUnits="userSpaceOnUse">
      <stop offset="0" stop-color="#101114"/>
      <stop offset=".58" stop-color="#17231d"/>
      <stop offset="1" stop-color="#263c32"/>
    </linearGradient>
    <filter id="soft-glow" x="-20%" y="-30%" width="140%" height="160%">
      <feGaussianBlur stdDeviation="9" result="blur"/>
      <feMerge><feMergeNode in="blur"/><feMergeNode in="SourceGraphic"/></feMerge>
    </filter>
  </defs>
  <rect width="1200" height="630" fill="url(#bg)"/>
  <g opacity=".14" stroke="#f2f4f1" stroke-width="1">
    <path d="M0 122h1200M0 242h1200M0 362h1200M0 482h1200"/>
    <path d="M164 0v630M344 0v630M524 0v630M704 0v630M884 0v630M1064 0v630"/>
  </g>
  <rect x="74" y="70" width="1052" height="490" rx="34" fill="#181a1f" fill-opacity=".68" stroke="#f2f4f1" stroke-opacity=".14" stroke-width="2"/>
  <text x="112" y="150" fill="#f2b84b" font-family="-apple-system,BlinkMacSystemFont,'Segoe UI','PingFang SC','Microsoft YaHei',sans-serif" font-size="28" font-weight="700">DeepSeek · Tushare · A股股票池</text>
  <text x="112" y="252" fill="#f2f4f1" font-family="-apple-system,BlinkMacSystemFont,'Segoe UI','PingFang SC','Microsoft YaHei',sans-serif" font-size="84" font-weight="850">硅基文明消费股</text>
  <text x="112" y="352" fill="#f2f4f1" font-family="-apple-system,BlinkMacSystemFont,'Segoe UI','PingFang SC','Microsoft YaHei',sans-serif" font-size="84" font-weight="850">交易系统</text>
  <g font-family="-apple-system,BlinkMacSystemFont,'Segoe UI','PingFang SC','Microsoft YaHei',sans-serif">
    <g transform="translate(112 470)">
      <rect width="956" height="54" rx="14" fill="#121418" stroke="#30343b"/>
      <text x="24" y="36" fill="#63d471" font-size="28" font-weight="800">+114.0%</text>
      <text x="172" y="35" fill="#9ca39a" font-size="20">回测收益</text>
      <text x="320" y="35" fill="#f2f4f1" font-size="22" font-weight="700">年化 +114.1%</text>
      <text x="508" y="35" fill="#f2f4f1" font-size="22" font-weight="700">回撤 -23.3%</text>
      <text x="694" y="35" fill="#f2f4f1" font-size="22" font-weight="700">夏普 1.71</text>
      <text x="820" y="35" fill="#9ca39a" font-size="18">¥2,138,147</text>
    </g>
  </g>
  <polyline points="646.0,360.0 647.6,357.3 649.2,357.8 650.8,357.6 652.4,358.2 654.1,358.7 655.7,359.0 657.3,359.0 658.9,356.0 660.5,353.0 662.1,353.3 663.7,352.3 665.3,353.5 667.0,353.9 668.6,354.1 670.2,353.7 671.8,354.5 673.4,354.6 675.0,352.9 676.6,350.8 678.2,345.1 679.8,347.6 681.5,347.7 683.1,345.9 684.7,344.0 686.3,344.7 687.9,345.8 689.5,343.4 691.1,338.5 692.7,338.8 694.3,336.5 696.0,327.2 697.6,324.0 699.2,318.4 700.8,323.9 702.4,321.2 704.0,331.3 705.6,323.6 707.2,329.5 708.9,331.3 710.5,326.3 712.1,316.2 713.7,318.8 715.3,321.3 716.9,320.3 718.5,320.9 720.1,320.2 721.7,319.1 723.4,318.0 725.0,316.8 726.6,319.1 728.2,318.2 729.8,321.0 731.4,318.7 733.0,321.4 734.6,321.2 736.2,324.5 737.9,325.9 739.5,331.1 741.1,329.1 742.7,328.7 744.3,331.1 745.9,331.0 747.5,330.9 749.1,330.9 750.8,331.1 752.4,330.2 754.0,328.7 755.6,329.0 757.2,328.1 758.8,328.2 760.4,330.0 762.0,329.8 763.6,330.7 765.3,329.8 766.9,329.0 768.5,328.8 770.1,329.6 771.7,330.2 773.3,330.7 774.9,331.2 776.5,332.5 778.1,332.6 779.8,333.2 781.4,333.4 783.0,333.0 784.6,334.8 786.2,334.8 787.8,334.3 789.4,334.3 791.0,333.7 792.7,334.3 794.3,333.9 795.9,332.7 797.5,333.2 799.1,332.1 800.7,332.1 802.3,331.5 803.9,331.3 805.5,331.2 807.2,332.5 808.8,331.5 810.4,332.7 812.0,334.1 813.6,331.7 815.2,331.8 816.8,332.2 818.4,331.3 820.0,330.3 821.7,329.0 823.3,327.9 824.9,328.9 826.5,328.4 828.1,328.4 829.7,329.9 831.3,327.8 832.9,328.2 834.6,327.4 836.2,327.2 837.8,326.2 839.4,324.3 841.0,327.7 842.6,326.0 844.2,325.5 845.8,325.4 847.4,325.5 849.1,328.0 850.7,323.0 852.3,321.7 853.9,322.0 855.5,322.9 857.1,321.6 858.7,320.4 860.3,323.9 862.0,322.2 863.6,325.6 865.2,323.5 866.8,325.6 868.4,328.2 870.0,328.1 871.6,324.7 873.2,324.9 874.8,325.9 876.5,322.2 878.1,324.1 879.7,324.2 881.3,323.4 882.9,320.6 884.5,321.2 886.1,320.6 887.7,325.6 889.3,325.8 891.0,324.8 892.6,324.8 894.2,326.1 895.8,323.3 897.4,324.5 899.0,326.3 900.6,327.8 902.2,326.2 903.9,330.0 905.5,326.8 907.1,327.9 908.7,329.2 910.3,333.4 911.9,331.6 913.5,329.6 915.1,331.9 916.7,330.8 918.4,330.5 920.0,333.6 921.6,330.9 923.2,332.8 924.8,331.6 926.4,332.1 928.0,326.0 929.6,324.4 931.2,323.7 932.9,321.4 934.5,318.7 936.1,320.5 937.7,318.8 939.3,316.2 940.9,314.4 942.5,315.5 944.1,312.1 945.8,315.4 947.4,317.4 949.0,315.0 950.6,316.9 952.2,317.2 953.8,316.9 955.4,314.0 957.0,309.6 958.6,309.0 960.3,305.8 961.9,306.5 963.5,302.1 965.1,305.9 966.7,309.0 968.3,306.2 969.9,305.4 971.5,302.0 973.1,307.7 974.8,303.1 976.4,297.1 978.0,298.4 979.6,301.3 981.2,296.3 982.8,300.4 984.4,304.5 986.0,300.7 987.7,300.5 989.3,299.3 990.9,302.7 992.5,307.4 994.1,300.4 995.7,303.4 997.3,303.4 998.9,304.7 1000.5,296.7 1002.2,293.3 1003.8,290.2 1005.4,287.2 1007.0,287.5 1008.6,291.6 1010.2,287.5 1011.8,283.6 1013.4,287.6 1015.0,287.7 1016.7,282.0 1018.3,285.3 1019.9,294.0 1021.5,293.4 1023.1,294.0 1024.7,296.7 1026.3,299.4 1027.9,293.0 1029.6,297.0 1031.2,304.5 1032.8,299.5 1034.4,307.6 1036.0,310.4" fill="none" stroke="#63d471" stroke-width="8" stroke-linecap="round" stroke-linejoin="round" filter="url(#soft-glow)"/>
</svg>
