<svg xmlns="http://www.w3.org/2000/svg" viewBox="0 0 1200 630" role="img" aria-label="硅基文明消费股交易系统">
  <defs>
    <linearGradient id="bg" x1="0" y1="630" x2="1200" y2="0" gradientUnits="userSpaceOnUse">
      <stop offset="0" stop-color="#101114"/>
      <stop offset=".58" stop-color="#17231d"/>
      <stop offset="1" stop-color="#263c32"/>
    </linearGradient>
    <filter id="soft-glow" x="-20%" y="-30%" width="140%" height="160%">
      <feGaussianBlur stdDeviation="9" result="blur"/>
      <feMerge><feMergeNode in="blur"/><feMergeNode in="SourceGraphic"/></feMerge>
    </filter>
  </defs>
  <rect width="1200" height="630" fill="url(#bg)"/>
  <g opacity=".14" stroke="#f2f4f1" stroke-width="1">
    <path d="M0 122h1200M0 242h1200M0 362h1200M0 482h1200"/>
    <path d="M164 0v630M344 0v630M524 0v630M704 0v630M884 0v630M1064 0v630"/>
  </g>
  <rect x="74" y="70" width="1052" height="490" rx="34" fill="#181a1f" fill-opacity=".68" stroke="#f2f4f1" stroke-opacity=".14" stroke-width="2"/>
  <text x="112" y="150" fill="#f2b84b" font-family="-apple-system,BlinkMacSystemFont,'Segoe UI','PingFang SC','Microsoft YaHei',sans-serif" font-size="28" font-weight="700">DeepSeek · Tushare · A股股票池</text>
  <text x="112" y="252" fill="#f2f4f1" font-family="-apple-system,BlinkMacSystemFont,'Segoe UI','PingFang SC','Microsoft YaHei',sans-serif" font-size="84" font-weight="850">硅基文明消费股</text>
  <text x="112" y="352" fill="#f2f4f1" font-family="-apple-system,BlinkMacSystemFont,'Segoe UI','PingFang SC','Microsoft YaHei',sans-serif" font-size="84" font-weight="850">交易系统</text>
  <g font-family="-apple-system,BlinkMacSystemFont,'Segoe UI','PingFang SC','Microsoft YaHei',sans-serif">
    <g transform="translate(112 470)">
      <rect width="956" height="54" rx="14" fill="#121418" stroke="#30343b"/>
      <text x="24" y="36" fill="#63d471" font-size="28" font-weight="800">+342.1%</text>
      <text x="172" y="35" fill="#9ca39a" font-size="20">回测收益</text>
      <text x="320" y="35" fill="#f2f4f1" font-size="22" font-weight="700">年化 +618.0%</text>
      <text x="508" y="35" fill="#f2f4f1" font-size="22" font-weight="700">回撤 -22.9%</text>
      <text x="694" y="35" fill="#f2f4f1" font-size="22" font-weight="700">夏普 3.78</text>
      <text x="820" y="35" fill="#9ca39a" font-size="18">¥4,416,147</text>
    </g>
  </g>
  <polyline points="646.0,360.0 648.1,360.0 650.1,359.2 652.2,359.2 654.3,358.1 656.3,358.3 658.4,356.9 660.4,356.8 662.5,357.3 664.6,357.8 666.6,357.8 668.7,357.2 670.8,356.5 672.8,355.5 674.9,354.8 677.0,354.5 679.0,355.5 681.1,354.2 683.1,353.8 685.2,354.5 687.3,352.4 689.3,352.6 691.4,352.9 693.5,353.2 695.5,352.7 697.6,349.0 699.7,349.8 701.7,347.7 703.8,348.1 705.8,347.9 707.9,348.4 710.0,348.8 712.0,349.0 714.1,349.0 716.2,346.5 718.2,342.4 720.3,337.9 722.3,339.9 724.4,339.9 726.5,338.4 728.5,337.1 730.6,337.8 732.7,338.5 734.7,336.6 736.8,332.6 738.9,333.4 740.9,331.7 743.0,324.6 745.0,322.6 747.1,327.5 749.2,323.6 751.2,315.7 753.3,317.6 755.4,319.6 757.4,318.7 759.5,319.3 761.6,318.9 763.6,318.2 765.7,317.5 767.7,316.6 769.8,318.2 771.9,326.5 773.9,324.1 776.0,319.8 778.1,319.4 780.1,320.8 782.2,315.3 784.3,311.1 786.3,310.9 788.4,310.0 790.4,313.0 792.5,318.7 794.6,318.1 796.6,318.3 798.7,318.3 800.8,315.9 802.8,316.4 804.9,317.4 807.0,320.2 809.0,319.7 811.1,320.2 813.1,322.8 815.2,322.2 817.3,322.9 819.3,322.6 821.4,322.9 823.5,326.1 825.5,326.6 827.6,324.5 829.7,321.5 831.7,322.4 833.8,322.8 835.8,321.9 837.9,321.6 840.0,322.6 842.0,321.8 844.1,322.1 846.2,319.6 848.2,316.8 850.3,317.2 852.3,318.9 854.4,318.4 856.5,319.4 858.5,320.4 860.6,317.4 862.7,318.5 864.7,315.2 866.8,313.8 868.9,314.4 870.9,315.7 873.0,314.8 875.0,312.9 877.1,314.7 879.2,315.4 881.2,313.7 883.3,312.9 885.4,315.0 887.4,314.0 889.5,318.1 891.6,317.5 893.6,318.9 895.7,319.5 897.7,320.3 899.8,318.3 901.9,319.0 903.9,319.9 906.0,318.8 908.1,318.7 910.1,316.5 912.2,316.5 914.3,315.6 916.3,317.1 918.4,316.1 920.4,317.8 922.5,318.0 924.6,317.0 926.6,317.2 928.7,318.1 930.8,316.4 932.8,316.3 934.9,317.2 937.0,317.1 939.0,315.9 941.1,318.0 943.1,315.3 945.2,315.8 947.3,315.3 949.3,317.2 951.4,316.2 953.5,314.2 955.5,315.3 957.6,316.0 959.7,316.7 961.7,318.5 963.8,316.5 965.8,318.0 967.9,317.1 970.0,317.0 972.0,313.0 974.1,312.6 976.2,310.3 978.2,310.2 980.3,308.1 982.3,308.5 984.4,306.7 986.5,305.2 988.5,304.6 990.6,303.9 992.7,302.3 994.7,302.9 996.8,303.7 998.9,303.9 1000.9,305.4 1003.0,304.1 1005.0,301.2 1007.1,299.8 1009.2,300.0 1011.2,295.6 1013.3,293.0 1015.4,289.0 1017.4,289.0 1019.5,289.6 1021.6,289.0 1023.6,289.1 1025.7,287.4 1027.7,291.3 1029.8,287.6 1031.9,282.4 1033.9,282.0 1036.0,282.9" fill="none" stroke="#63d471" stroke-width="8" stroke-linecap="round" stroke-linejoin="round" filter="url(#soft-glow)"/>
</svg>
