<svg xmlns="http://www.w3.org/2000/svg" viewBox="0 0 1200 630" role="img" aria-label="硅基文明消费股交易系统">
  <defs>
    <linearGradient id="bg" x1="0" y1="630" x2="1200" y2="0" gradientUnits="userSpaceOnUse">
      <stop offset="0" stop-color="#101114"/>
      <stop offset=".58" stop-color="#17231d"/>
      <stop offset="1" stop-color="#263c32"/>
    </linearGradient>
    <filter id="soft-glow" x="-20%" y="-30%" width="140%" height="160%">
      <feGaussianBlur stdDeviation="9" result="blur"/>
      <feMerge><feMergeNode in="blur"/><feMergeNode in="SourceGraphic"/></feMerge>
    </filter>
  </defs>
  <rect width="1200" height="630" fill="url(#bg)"/>
  <g opacity=".14" stroke="#f2f4f1" stroke-width="1">
    <path d="M0 122h1200M0 242h1200M0 362h1200M0 482h1200"/>
    <path d="M164 0v630M344 0v630M524 0v630M704 0v630M884 0v630M1064 0v630"/>
  </g>
  <rect x="74" y="70" width="1052" height="490" rx="34" fill="#181a1f" fill-opacity=".68" stroke="#f2f4f1" stroke-opacity=".14" stroke-width="2"/>
  <text x="112" y="150" fill="#f2b84b" font-family="-apple-system,BlinkMacSystemFont,'Segoe UI','PingFang SC','Microsoft YaHei',sans-serif" font-size="28" font-weight="700">DeepSeek · Tushare · A股股票池</text>
  <text x="112" y="252" fill="#f2f4f1" font-family="-apple-system,BlinkMacSystemFont,'Segoe UI','PingFang SC','Microsoft YaHei',sans-serif" font-size="84" font-weight="850">硅基文明消费股</text>
  <text x="112" y="352" fill="#f2f4f1" font-family="-apple-system,BlinkMacSystemFont,'Segoe UI','PingFang SC','Microsoft YaHei',sans-serif" font-size="84" font-weight="850">交易系统</text>
  <g font-family="-apple-system,BlinkMacSystemFont,'Segoe UI','PingFang SC','Microsoft YaHei',sans-serif">
    <g transform="translate(112 470)">
      <rect width="956" height="54" rx="14" fill="#121418" stroke="#30343b"/>
      <text x="24" y="36" fill="#63d471" font-size="28" font-weight="800">+336.4%</text>
      <text x="172" y="35" fill="#9ca39a" font-size="20">回测收益</text>
      <text x="320" y="35" fill="#f2f4f1" font-size="22" font-weight="700">年化 +336.8%</text>
      <text x="508" y="35" fill="#f2f4f1" font-size="22" font-weight="700">回撤 -26.6%</text>
      <text x="694" y="35" fill="#f2f4f1" font-size="22" font-weight="700">夏普 2.95</text>
      <text x="820" y="35" fill="#9ca39a" font-size="18">¥4,359,270</text>
    </g>
  </g>
  <polyline points="646.0,360.0 647.6,359.2 649.2,359.3 650.8,359.7 652.4,358.2 654.1,358.3 655.7,358.2 657.3,358.5 658.9,358.0 660.5,355.4 662.1,355.8 663.7,354.5 665.3,354.7 667.0,354.6 668.6,354.7 670.2,355.0 671.8,355.3 673.4,355.3 675.0,354.2 676.6,352.2 678.2,352.4 679.8,351.7 681.5,352.5 683.1,352.7 684.7,352.8 686.3,352.8 687.9,353.0 689.5,353.0 691.1,352.1 692.7,350.8 694.3,347.7 696.0,349.1 697.6,349.3 699.2,347.9 700.8,346.6 702.4,346.9 704.0,347.4 705.6,345.9 707.2,342.9 708.9,342.9 710.5,341.0 712.1,336.1 713.7,334.8 715.3,330.3 716.9,333.8 718.5,331.2 720.1,337.6 721.7,333.9 723.4,337.7 725.0,338.4 726.6,336.0 728.2,330.2 729.8,332.3 731.4,333.6 733.0,333.5 734.6,333.5 736.2,332.8 737.9,331.8 739.5,331.5 741.1,330.5 742.7,331.7 744.3,330.8 745.9,332.4 747.5,330.7 749.1,332.1 750.8,332.5 752.4,334.2 754.0,334.9 755.6,338.3 757.2,337.3 758.8,337.0 760.4,340.5 762.0,339.9 763.6,339.2 765.3,340.4 766.9,341.5 768.5,339.6 770.1,338.3 771.7,338.0 773.3,336.5 774.9,337.4 776.5,339.6 778.1,339.2 779.8,340.1 781.4,338.2 783.0,337.1 784.6,336.5 786.2,337.6 787.8,339.3 789.4,340.1 791.0,339.6 792.7,340.8 794.3,340.9 795.9,341.1 797.5,341.6 799.1,341.6 800.7,343.5 802.3,343.2 803.9,342.9 805.5,342.2 807.2,342.7 808.8,342.3 810.4,342.1 812.0,342.8 813.6,342.6 815.2,342.0 816.8,341.6 818.4,339.2 820.0,338.9 821.7,338.9 823.3,340.0 824.9,338.7 826.5,339.9 828.1,341.0 829.7,338.9 831.3,339.4 832.9,340.0 834.6,338.6 836.2,338.2 837.8,337.3 839.4,337.2 841.0,337.9 842.6,337.4 844.2,337.4 845.8,338.5 847.4,337.4 849.1,337.3 850.7,335.8 852.3,336.8 853.9,336.3 855.5,336.0 857.1,337.6 858.7,336.9 860.3,335.6 862.0,333.7 863.6,334.2 865.2,335.1 866.8,334.1 868.4,333.0 870.0,333.0 871.6,333.4 873.2,332.3 874.8,331.2 876.5,333.3 878.1,332.9 879.7,335.0 881.3,333.6 882.9,334.1 884.5,335.0 886.1,335.3 887.7,333.6 889.3,333.9 891.0,334.6 892.6,332.7 894.2,333.5 895.8,332.9 897.4,332.1 899.0,330.4 900.6,331.8 902.2,331.3 903.9,333.7 905.5,333.3 907.1,333.4 908.7,333.6 910.3,334.5 911.9,332.1 913.5,332.3 915.1,333.4 916.7,334.0 918.4,332.7 920.0,335.3 921.6,333.2 923.2,333.8 924.8,333.3 926.4,335.6 928.0,334.7 929.6,333.1 931.2,334.0 932.9,333.9 934.5,334.1 936.1,336.2 937.7,334.8 939.3,335.7 940.9,333.9 942.5,334.0 944.1,331.3 945.8,330.2 947.4,328.6 949.0,327.3 950.6,326.2 952.2,327.2 953.8,326.6 955.4,324.2 957.0,324.1 958.6,323.2 960.3,320.6 961.9,321.9 963.5,321.9 965.1,320.4 966.7,319.5 968.3,319.7 969.9,318.7 971.5,316.9 973.1,314.4 974.8,314.5 976.4,310.6 978.0,310.0 979.6,308.5 981.2,309.9 982.8,311.0 984.4,310.2 986.0,309.6 987.7,306.5 989.3,311.0 990.9,308.4 992.5,305.8 994.1,307.4 995.7,307.5 997.3,305.9 998.9,308.0 1000.5,311.0 1002.2,306.5 1003.8,301.4 1005.4,300.0 1007.0,302.8 1008.6,305.0 1010.2,300.6 1011.8,302.3 1013.4,300.8 1015.0,303.7 1016.7,299.2 1018.3,296.0 1019.9,293.3 1021.5,290.5 1023.1,286.2 1024.7,287.3 1026.3,285.7 1027.9,282.7 1029.6,287.4 1031.2,287.7 1032.8,282.0 1034.4,285.9 1036.0,293.0" fill="none" stroke="#63d471" stroke-width="8" stroke-linecap="round" stroke-linejoin="round" filter="url(#soft-glow)"/>
</svg>
